<?xml version="1.0" encoding="UTF-8" standalone="no"?>
<svg
   xmlns:dc="http://purl.org/dc/elements/1.1/"
   xmlns:cc="http://creativecommons.org/ns#"
   xmlns:rdf="http://www.w3.org/1999/02/22-rdf-syntax-ns#"
   xmlns:svg="http://www.w3.org/2000/svg"
   xmlns="http://www.w3.org/2000/svg"
   viewBox="0 0 347.7821 256"
   height="256"
   width="347.7821"
   xml:space="preserve"
   version="1.1"
   id="svg3336"><metadata
     id="metadata3342"><rdf:RDF><cc:Work
         rdf:about=""><dc:format>image/svg+xml</dc:format><dc:type
           rdf:resource="http://purl.org/dc/dcmitype/StillImage" /><dc:title></dc:title></cc:Work></rdf:RDF></metadata><defs
     id="defs3340"><clipPath
       id="clipPath3350"
       clipPathUnits="userSpaceOnUse"><path
         id="path3352"
         d="M 0,960 960,960 960,0 0,0 0,960 Z" /></clipPath></defs><g
     transform="matrix(1.25,0,0,-1.25,-0.833375,517.25)"
     id="g3344"><g
       transform="matrix(0.29160206,0,0,0.29160206,0.47228891,148.05517)"
       id="g3346"><g
         clip-path="url(#clipPath3350)"
         id="g3348"><g
           transform="translate(0.6667,209)"
           id="g3354"><path
             id="path3356"
             style="fill:#005dbc;fill-opacity:1;fill-rule:nonzero;stroke:none"
             d="m 0,0 c 22.052,4.88 43.91,10.46 65.531,16.855 21.63,6.343 43.025,13.435 64.14,21.244 21.107,7.831 41.977,16.266 62.517,25.426 20.544,9.148 40.775,18.969 60.663,29.42 4.961,2.636 9.935,5.242 14.924,7.819 l 14.886,7.888 14.754,8.137 14.59,8.427 c 19.366,11.389 38.373,23.387 56.987,35.968 37.227,25.161 72.887,52.645 106.659,82.276 33.769,29.634 65.655,61.418 95.226,95.224 29.564,33.806 56.818,69.64 81.136,107.365 12.156,18.862 23.573,38.196 34.148,57.975 10.567,19.782 20.324,39.996 29.057,60.64 17.454,41.279 31.028,84.219 39.535,128.165 l 1.839,9.498 6.715,-7.016 4.682,-4.892 4.768,-4.818 c 3.214,-3.181 6.458,-6.333 9.76,-9.432 3.302,-3.097 6.633,-6.167 10.02,-9.179 1.681,-1.519 3.382,-3.016 5.096,-4.501 1.706,-1.492 3.413,-2.984 5.148,-4.445 3.443,-2.952 6.937,-5.847 10.442,-8.728 l 5.289,-4.286 5.337,-4.228 c 3.579,-2.792 7.168,-5.572 10.797,-8.3 3.627,-2.732 7.269,-5.443 10.953,-8.098 3.669,-2.674 7.377,-5.295 11.101,-7.89 3.723,-2.598 7.478,-5.148 11.25,-7.672 3.775,-2.518 7.576,-4.993 11.398,-7.435 3.827,-2.432 7.677,-4.825 11.552,-7.172 3.881,-2.335 7.781,-4.634 11.715,-6.862 3.936,-2.222 7.89,-4.411 11.89,-6.482 3.987,-2.106 8.024,-4.076 12.077,-5.983 4.064,-1.868 8.159,-3.624 12.277,-5.184 l 15.269,-5.785 -15.867,-3.767 c -19.036,-4.519 -38.015,-9.245 -56.457,-15.198 -9.204,-2.999 -18.277,-6.311 -26.94,-10.301 -8.653,-3.984 -16.917,-8.664 -24.096,-14.489 -7.181,-5.809 -13.131,-12.86 -17.247,-20.98 -4.134,-8.114 -6.493,-17.175 -7.652,-26.494 -0.585,-4.663 -0.877,-9.398 -0.982,-14.158 l -0.173,-7.379 -0.235,-7.418 c -0.355,-9.866 -0.878,-19.73 -1.586,-29.584 -1.407,-19.708 -3.604,-39.378 -6.7,-58.926 -3.118,-19.544 -7.172,-38.966 -12.404,-58.102 -5.245,-19.127 -11.649,-37.978 -19.506,-56.255 -7.858,-18.269 -17.155,-35.971 -28.072,-52.671 C 725.303,171.519 712.764,155.839 698.68,141.656 684.605,127.467 668.997,114.79 652.239,103.91 635.486,93.011 617.593,83.963 599.13,76.443 c -4.619,-1.877 -9.3,-3.59 -14.015,-5.198 -4.728,-1.57 -9.485,-3.042 -14.274,-4.39 -9.57,-2.728 -19.248,-5.014 -28.972,-6.99 -19.464,-3.894 -39.149,-6.378 -58.868,-7.694 -19.72,-1.356 -39.478,-1.471 -59.168,-0.741 -19.69,0.75 -39.324,2.341 -58.844,4.715 -19.523,2.368 -38.939,5.437 -58.238,9.053 19.432,-2.819 38.935,-5.081 58.48,-6.639 19.544,-1.55 39.125,-2.48 58.691,-2.48 19.563,-0.008 39.108,0.864 58.515,2.819 19.405,1.945 38.669,5.035 57.576,9.478 9.445,2.249 18.811,4.793 28.031,7.757 9.22,2.967 18.311,6.266 27.304,9.793 18.002,7.021 35.269,15.867 51.442,26.369 16.174,10.501 31.215,22.719 44.792,36.406 13.586,13.68 25.697,28.819 36.259,44.988 10.57,16.17 19.601,33.355 27.254,51.148 7.653,17.799 13.912,36.213 19.048,54.945 5.124,18.741 9.107,37.809 12.174,57.036 3.046,19.231 5.213,38.618 6.602,58.072 0.699,9.727 1.216,19.47 1.566,29.222 l 0.231,7.299 0.173,7.34 c 0.111,5.052 0.422,10.128 1.058,15.205 1.261,10.131 3.869,20.375 8.663,29.788 2.407,4.684 5.306,9.144 8.678,13.192 3.347,4.071 7.142,7.727 11.171,11.006 8.085,6.555 17.065,11.593 26.221,15.814 9.174,4.223 18.58,7.647 28.036,10.729 18.932,6.11 38.093,10.87 57.249,15.42 l -0.598,-9.552 c -4.434,1.679 -8.745,3.531 -12.989,5.482 -4.221,1.985 -8.402,4.027 -12.502,6.191 -4.119,2.134 -8.167,4.375 -12.193,6.648 -4.022,2.278 -8,4.623 -11.954,7.002 -3.946,2.39 -7.863,4.824 -11.753,7.296 -3.883,2.481 -7.744,4.996 -11.576,7.552 -3.828,2.56 -7.637,5.148 -11.413,7.783 -3.778,2.632 -7.537,5.29 -11.258,8.001 -3.734,2.691 -7.428,5.44 -11.104,8.21 -3.68,2.766 -7.32,5.585 -10.95,8.418 l -5.414,4.289 -5.368,4.349 c -3.558,2.925 -7.105,5.864 -10.604,8.864 -1.762,1.484 -3.498,3.001 -5.233,4.518 -1.742,1.51 -3.473,3.033 -5.184,4.579 -3.446,3.064 -6.839,6.192 -10.206,9.35 -3.366,3.159 -6.68,6.379 -9.965,9.63 l -4.879,4.931 -4.802,5.017 8.554,2.482 c -8.655,-44.717 -22.449,-88.324 -40.149,-130.183 -8.856,-20.934 -18.743,-41.416 -29.444,-61.45 -10.709,-20.03 -22.265,-39.598 -34.563,-58.68 -24.6,-38.164 -52.149,-74.38 -82.014,-108.531 C 548.532,297.95 516.336,265.859 482.247,235.944 448.154,206.031 412.163,178.293 374.59,152.897 355.803,140.2 336.619,128.09 317.072,116.594 l -14.728,-8.505 -14.833,-8.324 c -4.975,-2.718 -9.967,-5.409 -14.967,-8.081 -5.017,-2.642 -10.11,-5.14 -15.182,-7.671 C 236.945,74.131 216.22,64.913 195.226,56.388 174.227,47.875 152.976,40.004 131.457,32.976 109.946,25.928 88.209,19.609 66.287,14.078 44.357,8.597 22.242,3.838 0,0" /></g><g
           transform="translate(730.3235,625.707)"
           id="g3358"><path
             id="path3360"
             style="fill:#14a0e3;fill-opacity:1;fill-rule:nonzero;stroke:none"
             d="m 0,0 c 0,0 -0.057,-1.433 -0.165,-4.121 -0.054,-1.343 -0.121,-3.001 -0.199,-4.949 -0.024,-0.49 -0.03,-0.986 -0.07,-1.521 -0.049,-0.541 -0.1,-1.101 -0.152,-1.678 -0.106,-1.154 -0.218,-2.38 -0.337,-3.676 -0.241,-2.59 -0.457,-5.473 -0.962,-8.516 -0.223,-1.532 -0.455,-3.126 -0.696,-4.779 -0.121,-0.826 -0.245,-1.667 -0.371,-2.523 -0.168,-0.848 -0.339,-1.711 -0.513,-2.588 -0.348,-1.753 -0.707,-3.562 -1.076,-5.424 -0.196,-0.928 -0.351,-1.879 -0.586,-2.826 -0.239,-0.946 -0.48,-1.905 -0.725,-2.877 -0.49,-1.941 -0.992,-3.933 -1.507,-5.972 -0.512,-2.038 -1.217,-4.074 -1.838,-6.179 -2.472,-8.428 -5.955,-17.295 -10.047,-26.456 -1.086,-2.261 -2.187,-4.554 -3.301,-6.875 -0.536,-1.171 -1.154,-2.308 -1.781,-3.45 -0.621,-1.144 -1.245,-2.295 -1.872,-3.452 -0.628,-1.157 -1.259,-2.32 -1.893,-3.488 -0.636,-1.168 -1.369,-2.288 -2.054,-3.442 -1.406,-2.287 -2.777,-4.625 -4.248,-6.926 -5.959,-9.162 -12.801,-18.155 -20.324,-26.779 -1.933,-2.108 -3.874,-4.225 -5.821,-6.348 -1.966,-2.103 -4.078,-4.078 -6.116,-6.129 -1.038,-1.006 -2.035,-2.057 -3.109,-3.028 l -3.236,-2.903 -3.238,-2.903 c -0.544,-0.48 -1.072,-0.977 -1.628,-1.442 l -1.689,-1.372 -6.75,-5.481 c -2.331,-1.716 -4.66,-3.43 -6.985,-5.141 -2.291,-1.756 -4.729,-3.293 -7.118,-4.883 -2.408,-1.561 -4.739,-3.223 -7.224,-4.622 -2.449,-1.452 -4.889,-2.899 -7.316,-4.338 -2.466,-1.369 -4.969,-2.644 -7.428,-3.958 -1.233,-0.649 -2.463,-1.296 -3.689,-1.941 -1.255,-0.586 -2.506,-1.171 -3.752,-1.754 -2.496,-1.155 -4.955,-2.343 -7.426,-3.444 -2.505,-1.025 -4.989,-2.042 -7.449,-3.049 -1.233,-0.495 -2.447,-1.02 -3.677,-1.485 -1.24,-0.438 -2.474,-0.875 -3.701,-1.309 -2.454,-0.867 -4.88,-1.724 -7.278,-2.572 -2.433,-0.735 -4.837,-1.461 -7.208,-2.177 -4.717,-1.518 -9.417,-2.588 -13.933,-3.719 -1.13,-0.28 -2.25,-0.558 -3.36,-0.833 -1.121,-0.224 -2.233,-0.446 -3.334,-0.666 -2.203,-0.436 -4.364,-0.864 -6.481,-1.283 -1.059,-0.207 -2.106,-0.411 -3.142,-0.614 -1.045,-0.156 -2.078,-0.31 -3.099,-0.462 -2.042,-0.304 -4.036,-0.601 -5.98,-0.891 -3.877,-0.657 -7.6,-0.931 -11.081,-1.305 -1.742,-0.177 -3.428,-0.348 -5.055,-0.512 -1.625,-0.188 -3.205,-0.203 -4.716,-0.308 -3.024,-0.165 -5.801,-0.317 -8.31,-0.455 -0.627,-0.033 -1.237,-0.065 -1.83,-0.096 -0.594,-0.005 -1.171,-0.01 -1.73,-0.015 -1.119,-0.01 -2.167,-0.02 -3.143,-0.028 -1.95,-0.018 -3.609,-0.033 -4.954,-0.045 -2.689,-0.024 -4.123,-0.036 -4.123,-0.036 0,0 1.433,0.051 4.121,0.149 1.344,0.048 3.001,0.108 4.949,0.179 0.974,0.035 2.02,0.073 3.137,0.113 0.558,0.02 1.133,0.041 1.726,0.063 0.591,0.047 1.2,0.096 1.825,0.146 2.5,0.205 5.267,0.432 8.28,0.679 1.504,0.146 3.078,0.203 4.694,0.435 1.617,0.208 3.293,0.424 5.025,0.648 3.459,0.467 7.156,0.84 10.999,1.6 1.927,0.341 3.903,0.691 5.926,1.049 1.011,0.179 2.033,0.36 3.068,0.543 1.024,0.229 2.06,0.461 3.108,0.696 2.092,0.473 4.227,0.957 6.404,1.449 1.087,0.248 2.185,0.499 3.292,0.751 1.095,0.304 2.2,0.61 3.314,0.919 4.452,1.245 9.081,2.431 13.715,4.064 2.328,0.773 4.689,1.556 7.078,2.349 2.349,0.903 4.727,1.818 7.131,2.742 1.201,0.462 2.409,0.926 3.623,1.393 1.203,0.492 2.39,1.044 3.594,1.567 2.402,1.06 4.827,2.13 7.272,3.209 2.41,1.154 4.804,2.393 7.233,3.598 1.212,0.607 2.429,1.217 3.65,1.828 1.19,0.669 2.384,1.339 3.582,2.012 2.387,1.361 4.815,2.682 7.204,4.094 2.348,1.48 4.708,2.967 7.077,4.461 2.403,1.438 4.649,3.137 6.97,4.733 2.302,1.624 4.652,3.194 6.852,4.98 2.232,1.737 4.468,3.479 6.706,5.222 l 6.46,5.544 1.614,1.386 c 0.532,0.469 1.035,0.97 1.554,1.454 l 3.087,2.924 3.083,2.919 c 1.023,0.977 1.968,2.031 2.954,3.04 1.934,2.057 3.941,4.036 5.802,6.138 1.84,2.12 3.674,4.233 5.501,6.339 7.094,8.597 13.5,17.51 19.032,26.543 1.364,2.268 2.629,4.571 3.929,6.82 0.633,1.135 1.314,2.236 1.898,3.382 0.582,1.147 1.161,2.289 1.737,3.424 0.576,1.134 1.149,2.262 1.718,3.384 0.576,1.119 1.145,2.232 1.63,3.378 1.014,2.269 2.016,4.51 3.004,6.721 3.703,8.943 6.824,17.559 8.973,25.716 0.54,2.037 1.167,4.005 1.603,5.974 0.439,1.968 0.868,3.89 1.287,5.763 0.209,0.936 0.416,1.86 0.62,2.772 0.202,0.912 0.323,1.828 0.486,2.721 0.305,1.791 0.601,3.53 0.888,5.215 0.144,0.842 0.285,1.671 0.424,2.486 0.098,0.821 0.194,1.628 0.288,2.42 0.186,1.585 0.366,3.113 0.539,4.581 0.409,2.942 0.527,5.611 0.688,8.025 0.08,1.206 0.155,2.348 0.226,3.422 0.036,0.537 0.071,1.057 0.104,1.56 0.025,0.51 0.019,1.025 0.029,1.51 0.025,1.95 0.046,3.608 0.064,4.953 0.034,2.689 0.053,4.123 0.053,4.123 l 0.064,5 L 0.2,4.996 0,0 Z" /></g><g
           transform="translate(778.3581,804.1479)"
           id="g3362"><path
             id="path3364"
             style="fill:#14a0e3;fill-opacity:1;fill-rule:nonzero;stroke:none"
             d="M 0,0 8.775,13.418 22.193,4.643 13.418,-8.775 0,0 Z" /></g></g></g></g></svg>